<svg width="47" height="48" viewBox="0 0 47 48" fill="none" xmlns="http://www.w3.org/2000/svg">
<g filter="url(#filter0_d_1_113)">
<path d="M23.5 0.500008C12.8662 0.500008 4.21429 9.15187 4.21429 19.7857C4.21429 30.4196 12.8662 39.0714 23.5 39.0714C34.1338 39.0714 42.7857 30.4196 42.7857 19.7857C42.7857 9.15187 34.1338 0.500008 23.5 0.500008ZM21.831 3.5605C21.8904 3.55308 21.9557 3.56495 22.0165 3.5605V4.95056H24.9835V3.55902C28.7793 3.89859 32.3352 5.56096 35.03 8.25573C37.7248 10.9505 39.3871 14.5064 39.7267 18.3022H38.3352V21.2692H39.7267C39.3871 25.0651 37.7248 28.6209 35.03 31.3157C32.3352 34.0105 28.7793 35.6728 24.9835 36.0124V34.6209H22.0165V36.0124C18.2207 35.6728 14.6648 34.0105 11.97 31.3157C9.27525 28.6209 7.61288 25.0651 7.2733 21.2692H8.66484V18.3022H7.2733C7.97352 10.5241 14.0782 4.34231 21.831 3.55902V3.5605ZM32.542 10.7452L19.9321 16.2164L14.458 28.8263L27.0679 23.3551L32.542 10.7452ZM23.5 17.5604C24.6868 17.5604 25.7253 18.5989 25.7253 19.7857C25.7253 20.9725 24.6868 22.011 23.5 22.011C22.3132 22.011 21.2747 20.9725 21.2747 19.7857C21.2747 18.5989 22.3132 17.5604 23.5 17.5604Z" fill="white"/>
</g>
<defs>
<filter id="filter0_d_1_113" x="0.214294" y="0.500008" width="46.5714" height="46.5714" filterUnits="userSpaceOnUse" color-interpolation-filters="sRGB">
<feFlood flood-opacity="0" result="BackgroundImageFix"/>
<feColorMatrix in="SourceAlpha" type="matrix" values="0 0 0 0 0 0 0 0 0 0 0 0 0 0 0 0 0 0 127 0" result="hardAlpha"/>
<feOffset dy="4"/>
<feGaussianBlur stdDeviation="2"/>
<feComposite in2="hardAlpha" operator="out"/>
<feColorMatrix type="matrix" values="0 0 0 0 0 0 0 0 0 0 0 0 0 0 0 0 0 0 0.25 0"/>
<feBlend mode="normal" in2="BackgroundImageFix" result="effect1_dropShadow_1_113"/>
<feBlend mode="normal" in="SourceGraphic" in2="effect1_dropShadow_1_113" result="shape"/>
</filter>
</defs>
</svg>
