<svg width="16" height="16" viewBox="0 0 16 16" fill="none" xmlns="http://www.w3.org/2000/svg">
<path d="M13.5591 0.795003L13.6986 0.646003C13.8036 0.53392 13.9282 0.445023 14.0654 0.384389C14.2025 0.323755 14.3495 0.292571 14.498 0.292618C14.6464 0.292664 14.7934 0.32394 14.9305 0.38466C15.0677 0.44538 15.1923 0.534354 15.2972 0.646503C15.4021 0.758652 15.4854 0.891779 15.5421 1.03828C15.5989 1.18479 15.6281 1.3418 15.628 1.50036C15.628 1.65891 15.5987 1.81591 15.5419 1.96238C15.485 2.10884 15.4017 2.24192 15.2967 2.354L15.1572 2.502C15.3959 2.78786 15.5231 3.1604 15.5128 3.54323C15.5025 3.92607 15.3556 4.29021 15.102 4.561L5.4663 14.854C5.40606 14.918 5.33065 14.9633 5.24815 14.985L1.50322 15.985C1.42486 16.0058 1.34277 16.0047 1.26495 15.9816C1.18712 15.9586 1.11621 15.9144 1.05911 15.8534C1.002 15.7924 0.960636 15.7166 0.939041 15.6335C0.917446 15.5504 0.916353 15.4627 0.935868 15.379L1.8721 11.379C1.89258 11.2912 1.93497 11.2111 1.99475 11.147L11.0219 1.505C10.9316 1.43713 10.8218 1.40553 10.7118 1.41578C10.6018 1.42602 10.4988 1.47746 10.4208 1.561L7.33876 4.854C7.29524 4.90049 7.24357 4.93737 7.1867 4.96253C7.12983 4.98769 7.06888 5.00064 7.00733 5.00064C6.94578 5.00064 6.88483 4.98769 6.82797 4.96253C6.7711 4.93737 6.71943 4.90049 6.67591 4.854C6.63238 4.80752 6.59786 4.75233 6.5743 4.69159C6.55075 4.63085 6.53863 4.56575 6.53863 4.5C6.53863 4.43426 6.55075 4.36916 6.5743 4.30842C6.59786 4.24768 6.63238 4.19249 6.67591 4.146L9.75985 0.854003C10.0135 0.583018 10.3547 0.426024 10.7134 0.415238C11.072 0.404452 11.4209 0.540694 11.6885 0.796003C11.9457 0.550441 12.2786 0.414615 12.6236 0.41443C12.9686 0.414246 13.3016 0.549717 13.5591 0.795003ZM12.9562 1.561C12.8684 1.46727 12.7493 1.41461 12.6252 1.41461C12.5011 1.41461 12.382 1.46727 12.2942 1.561L2.74748 11.756L2.0322 14.813L4.89426 14.049L14.441 3.854C14.4846 3.80756 14.5192 3.75238 14.5428 3.69164C14.5664 3.63089 14.5785 3.56577 14.5785 3.5C14.5785 3.43424 14.5664 3.36911 14.5428 3.30837C14.5192 3.24762 14.4846 3.19245 14.441 3.146L12.9571 1.561H12.9562Z" fill="#2E2E2E"/>
</svg>
