<svg width="101" height="102" viewBox="0 0 101 102" fill="none" xmlns="http://www.w3.org/2000/svg">
<path d="M97.0367 18.8013L53.9117 18.7923C51.9269 18.7918 50.3178 20.4732 50.3177 22.5477L50.3127 97.6717C50.3126 99.7462 51.9214 101.428 53.9062 101.429L97.0312 101.438C99.016 101.438 100.625 99.7567 100.625 97.6822L100.63 22.5582C100.63 20.4837 99.0215 18.8017 97.0367 18.8013Z" fill="#4B55A5"/>
<path d="M100.63 30.0706L89.8485 30.0684L89.8483 33.8246L100.63 33.8268L100.63 30.0706Z" fill="#A5C3DC"/>
<path d="M100.629 37.583L89.848 37.5808L89.8477 41.337L100.629 41.3392L100.629 37.583Z" fill="#A5C3DC"/>
<path d="M86.2554 18.799L53.9117 18.7923C51.9269 18.7918 50.3178 20.4732 50.3177 22.5477L50.3127 97.6717C50.3126 99.7462 51.9214 101.428 53.9062 101.429L86.25 101.435C88.2347 101.436 89.8438 99.7544 89.844 97.6799L89.8489 22.556C89.8491 20.4815 88.2402 18.7994 86.2554 18.799Z" fill="#6478B9"/>
<path d="M86.2537 45.0924L39.535 45.0826C37.5502 45.0822 35.9411 46.7636 35.941 48.8381L35.9377 97.6687C35.9376 99.7432 37.5465 101.425 39.5312 101.426L86.25 101.435C88.2348 101.436 89.8439 99.7544 89.844 97.6799L89.8472 48.8493C89.8474 46.7749 88.2385 45.0928 86.2537 45.0924Z" fill="#D7322D"/>
<path d="M89.847 52.6056L75.472 52.6025L75.471 67.6273L89.846 67.6303L89.847 52.6056Z" fill="#F0915A"/>
<path d="M82.6587 63.8726C84.6435 63.8731 86.2526 62.1917 86.2527 60.1172C86.2529 58.0427 84.644 56.3607 82.6592 56.3602C80.6745 56.3598 79.0654 58.0412 79.0652 60.1157C79.0651 62.1902 80.674 63.8722 82.6587 63.8726Z" fill="#FAB991"/>
<path d="M71.881 11.2836L32.3497 11.2753C30.365 11.2749 28.7559 12.9563 28.7557 15.0308L28.7503 97.6672C28.7501 99.7416 30.359 101.424 32.3438 101.424L71.875 101.432C73.8598 101.433 75.4689 99.7514 75.469 97.6769L75.4745 15.0406C75.4746 12.9661 73.8658 11.284 71.881 11.2836Z" fill="#A5C3DC"/>
<path d="M75.4742 18.7968L68.2867 18.7953L68.2862 26.3077L75.4737 26.3092L75.4742 18.7968Z" fill="#D7E6F0"/>
<path d="M64.6942 0.0135199L17.9755 0.00375698C15.9907 0.00334221 14.3816 1.68471 14.3815 3.7592L14.3752 97.6642C14.3751 99.7386 15.984 101.421 17.9687 101.421L64.6875 101.431C66.6723 101.431 68.2814 99.7499 68.2815 97.6754L68.2877 3.77047C68.2879 1.69598 66.679 0.0139347 64.6942 0.0135199Z" fill="#353744"/>
<path d="M50.3192 0.0105159L17.9755 0.00375698C15.9907 0.00334221 14.3816 1.68471 14.3815 3.7592L14.3752 97.6642C14.3751 99.7386 15.984 101.421 17.9687 101.421L50.3125 101.428C52.2973 101.428 53.9064 99.7469 53.9065 97.6724L53.9127 3.76747C53.9129 1.69297 52.304 0.0109307 50.3192 0.0105159Z" fill="#55525B"/>
<path d="M50.3173 30.0601L3.59851 30.0503C1.61374 30.0499 0.00464934 31.7313 0.00451192 33.8058L0.000281905 97.6612C0.000144483 99.7356 1.60901 101.418 3.59378 101.418L50.3125 101.428C52.2973 101.428 53.9064 99.7469 53.9065 97.6724L53.9108 33.8171C53.9109 31.7426 52.302 30.0605 50.3173 30.0601Z" fill="#D7322D"/>
<path d="M35.9423 30.0571L3.59851 30.0503C1.61374 30.0499 0.00464934 31.7313 0.00451192 33.8058L0.000281905 97.6612C0.000144483 99.7356 1.60901 101.418 3.59378 101.418L35.9375 101.425C37.9223 101.425 39.5314 99.7439 39.5315 97.6694L39.5358 33.8141C39.5359 31.7396 37.927 30.0575 35.9423 30.0571Z" fill="#F04B37"/>
<path d="M53.9105 37.5733L39.5355 37.5703L39.535 45.0826L53.91 45.0857L53.9105 37.5733Z" fill="#F0915A"/>
<path d="M53.9073 86.4038L39.5323 86.4008L39.5318 93.9132L53.9068 93.9162L53.9073 86.4038Z" fill="#F0915A"/>
<path d="M64.6898 65.747L64.6928 20.6726C64.6929 19.6354 63.8884 18.7943 62.8961 18.7941L59.3023 18.7934C58.3099 18.7932 57.5054 19.6339 57.5053 20.6711L57.5023 65.7455C57.5023 66.7827 58.3067 67.6238 59.2991 67.624L62.8928 67.6247C63.8852 67.6249 64.6898 66.7842 64.6898 65.747Z" fill="#55525B"/>
<path d="M64.6881 92.0404L64.6891 77.0156C64.6892 75.9783 63.8847 75.1373 62.8923 75.1371L59.2986 75.1364C58.3062 75.1361 57.5017 75.9768 57.5016 77.0141L57.5006 92.0389C57.5005 93.0761 58.305 93.9171 59.2973 93.9173L62.8911 93.9181C63.8835 93.9183 64.688 93.0776 64.6881 92.0404Z" fill="#55525B"/>
<path d="M61.0995 16.0828C63.0843 16.0832 64.6934 14.4018 64.6935 12.3273C64.6937 10.2528 63.0848 8.57078 61.1 8.57036C59.1153 8.56995 57.5062 10.2513 57.506 12.3258C57.5059 14.4003 59.1148 16.0823 61.0995 16.0828Z" fill="#55525B"/>
</svg>
