<svg width="16" height="15" viewBox="0 0 16 15" fill="none" xmlns="http://www.w3.org/2000/svg">
<g clip-path="url(#clip0_1_423)">
<path d="M14.029 0H2.79422C2.29761 0 1.82134 0.197544 1.47018 0.549175C1.11903 0.900806 0.921753 1.37772 0.921753 1.875L0.921753 13.125C0.921753 13.6223 1.11903 14.0992 1.47018 14.4508C1.82134 14.8025 2.29761 15 2.79422 15H14.029C14.5256 15 15.0019 14.8025 15.353 14.4508C15.7042 14.0992 15.9015 13.6223 15.9015 13.125V1.875C15.9015 1.37772 15.7042 0.900806 15.353 0.549175C15.0019 0.197544 14.5256 0 14.029 0V0ZM1.85798 3.61594C1.85798 3.1725 2.27742 2.8125 2.79422 2.8125H14.029C14.5458 2.8125 14.9652 3.1725 14.9652 3.61594V13.2591C14.9652 13.7025 14.5458 14.0625 14.029 14.0625H2.79422C2.27742 14.0625 1.85798 13.7025 1.85798 13.2591V3.61594Z" fill="#2E2E2E"/>
<path d="M7.00726 6.5625C7.25556 6.5625 7.4937 6.46373 7.66927 6.28791C7.84485 6.1121 7.94349 5.87364 7.94349 5.625C7.94349 5.37636 7.84485 5.1379 7.66927 4.96209C7.4937 4.78627 7.25556 4.6875 7.00726 4.6875C6.75895 4.6875 6.52082 4.78627 6.34524 4.96209C6.16966 5.1379 6.07102 5.37636 6.07102 5.625C6.07102 5.87364 6.16966 6.1121 6.34524 6.28791C6.52082 6.46373 6.75895 6.5625 7.00726 6.5625ZM9.81595 6.5625C10.0643 6.5625 10.3024 6.46373 10.478 6.28791C10.6535 6.1121 10.7522 5.87364 10.7522 5.625C10.7522 5.37636 10.6535 5.1379 10.478 4.96209C10.3024 4.78627 10.0643 4.6875 9.81595 4.6875C9.56765 4.6875 9.32951 4.78627 9.15394 4.96209C8.97836 5.1379 8.87972 5.37636 8.87972 5.625C8.87972 5.87364 8.97836 6.1121 9.15394 6.28791C9.32951 6.46373 9.56765 6.5625 9.81595 6.5625ZM12.6246 6.5625C12.873 6.5625 13.1111 6.46373 13.2867 6.28791C13.4622 6.1121 13.5609 5.87364 13.5609 5.625C13.5609 5.37636 13.4622 5.1379 13.2867 4.96209C13.1111 4.78627 12.873 4.6875 12.6246 4.6875C12.3763 4.6875 12.1382 4.78627 11.9626 4.96209C11.7871 5.1379 11.6884 5.37636 11.6884 5.625C11.6884 5.87364 11.7871 6.1121 11.9626 6.28791C12.1382 6.46373 12.3763 6.5625 12.6246 6.5625ZM4.19856 9.375C4.44687 9.375 4.685 9.27623 4.86058 9.10041C5.03615 8.9246 5.13479 8.68614 5.13479 8.4375C5.13479 8.18886 5.03615 7.9504 4.86058 7.77459C4.685 7.59877 4.44687 7.5 4.19856 7.5C3.95026 7.5 3.71212 7.59877 3.53655 7.77459C3.36097 7.9504 3.26233 8.18886 3.26233 8.4375C3.26233 8.68614 3.36097 8.9246 3.53655 9.10041C3.71212 9.27623 3.95026 9.375 4.19856 9.375ZM7.00726 9.375C7.25556 9.375 7.4937 9.27623 7.66927 9.10041C7.84485 8.9246 7.94349 8.68614 7.94349 8.4375C7.94349 8.18886 7.84485 7.9504 7.66927 7.77459C7.4937 7.59877 7.25556 7.5 7.00726 7.5C6.75895 7.5 6.52082 7.59877 6.34524 7.77459C6.16966 7.9504 6.07102 8.18886 6.07102 8.4375C6.07102 8.68614 6.16966 8.9246 6.34524 9.10041C6.52082 9.27623 6.75895 9.375 7.00726 9.375ZM9.81595 9.375C10.0643 9.375 10.3024 9.27623 10.478 9.10041C10.6535 8.9246 10.7522 8.68614 10.7522 8.4375C10.7522 8.18886 10.6535 7.9504 10.478 7.77459C10.3024 7.59877 10.0643 7.5 9.81595 7.5C9.56765 7.5 9.32951 7.59877 9.15394 7.77459C8.97836 7.9504 8.87972 8.18886 8.87972 8.4375C8.87972 8.68614 8.97836 8.9246 9.15394 9.10041C9.32951 9.27623 9.56765 9.375 9.81595 9.375ZM12.6246 9.375C12.873 9.375 13.1111 9.27623 13.2867 9.10041C13.4622 8.9246 13.5609 8.68614 13.5609 8.4375C13.5609 8.18886 13.4622 7.9504 13.2867 7.77459C13.1111 7.59877 12.873 7.5 12.6246 7.5C12.3763 7.5 12.1382 7.59877 11.9626 7.77459C11.7871 7.9504 11.6884 8.18886 11.6884 8.4375C11.6884 8.68614 11.7871 8.9246 11.9626 9.10041C12.1382 9.27623 12.3763 9.375 12.6246 9.375ZM4.19856 12.1875C4.44687 12.1875 4.685 12.0887 4.86058 11.9129C5.03615 11.7371 5.13479 11.4986 5.13479 11.25C5.13479 11.0014 5.03615 10.7629 4.86058 10.5871C4.685 10.4113 4.44687 10.3125 4.19856 10.3125C3.95026 10.3125 3.71212 10.4113 3.53655 10.5871C3.36097 10.7629 3.26233 11.0014 3.26233 11.25C3.26233 11.4986 3.36097 11.7371 3.53655 11.9129C3.71212 12.0887 3.95026 12.1875 4.19856 12.1875ZM7.00726 12.1875C7.25556 12.1875 7.4937 12.0887 7.66927 11.9129C7.84485 11.7371 7.94349 11.4986 7.94349 11.25C7.94349 11.0014 7.84485 10.7629 7.66927 10.5871C7.4937 10.4113 7.25556 10.3125 7.00726 10.3125C6.75895 10.3125 6.52082 10.4113 6.34524 10.5871C6.16966 10.7629 6.07102 11.0014 6.07102 11.25C6.07102 11.4986 6.16966 11.7371 6.34524 11.9129C6.52082 12.0887 6.75895 12.1875 7.00726 12.1875ZM9.81595 12.1875C10.0643 12.1875 10.3024 12.0887 10.478 11.9129C10.6535 11.7371 10.7522 11.4986 10.7522 11.25C10.7522 11.0014 10.6535 10.7629 10.478 10.5871C10.3024 10.4113 10.0643 10.3125 9.81595 10.3125C9.56765 10.3125 9.32951 10.4113 9.15394 10.5871C8.97836 10.7629 8.87972 11.0014 8.87972 11.25C8.87972 11.4986 8.97836 11.7371 9.15394 11.9129C9.32951 12.0887 9.56765 12.1875 9.81595 12.1875Z" fill="#2E2E2E"/>
</g>
<defs>
<clipPath id="clip0_1_423">
<rect width="14.9797" height="15" fill="white" transform="translate(0.921753)"/>
</clipPath>
</defs>
</svg>
