<svg width="15" height="17" viewBox="0 0 15 17" fill="none" xmlns="http://www.w3.org/2000/svg">
<path d="M14.5891 15.9375H13.9621V0.796875C13.9621 0.356768 13.6253 0 13.2098 0H2.67719C2.26168 0 1.92486 0.356768 1.92486 0.796875V15.9375H1.29792C1.09018 15.9375 0.921753 16.1159 0.921753 16.3359V17H14.9652V16.3359C14.9652 16.1159 14.7968 15.9375 14.5891 15.9375ZM4.93418 2.52344C4.93418 2.3034 5.1026 2.125 5.31034 2.125H6.56422C6.77196 2.125 6.94039 2.3034 6.94039 2.52344V3.85156C6.94039 4.0716 6.77196 4.25 6.56422 4.25H5.31034C5.1026 4.25 4.93418 4.0716 4.93418 3.85156V2.52344ZM4.93418 5.71094C4.93418 5.4909 5.1026 5.3125 5.31034 5.3125H6.56422C6.77196 5.3125 6.94039 5.4909 6.94039 5.71094V7.03906C6.94039 7.2591 6.77196 7.4375 6.56422 7.4375H5.31034C5.1026 7.4375 4.93418 7.2591 4.93418 7.03906V5.71094ZM6.56422 10.625H5.31034C5.1026 10.625 4.93418 10.4466 4.93418 10.2266V8.89844C4.93418 8.6784 5.1026 8.5 5.31034 8.5H6.56422C6.77196 8.5 6.94039 8.6784 6.94039 8.89844V10.2266C6.94039 10.4466 6.77196 10.625 6.56422 10.625ZM8.9466 15.9375H6.94039V13.1484C6.94039 12.9284 7.10881 12.75 7.31655 12.75H8.57043C8.77817 12.75 8.9466 12.9284 8.9466 13.1484V15.9375ZM10.9528 10.2266C10.9528 10.4466 10.7844 10.625 10.5766 10.625H9.32276C9.11503 10.625 8.9466 10.4466 8.9466 10.2266V8.89844C8.9466 8.6784 9.11503 8.5 9.32276 8.5H10.5766C10.7844 8.5 10.9528 8.6784 10.9528 8.89844V10.2266ZM10.9528 7.03906C10.9528 7.2591 10.7844 7.4375 10.5766 7.4375H9.32276C9.11503 7.4375 8.9466 7.2591 8.9466 7.03906V5.71094C8.9466 5.4909 9.11503 5.3125 9.32276 5.3125H10.5766C10.7844 5.3125 10.9528 5.4909 10.9528 5.71094V7.03906ZM10.9528 3.85156C10.9528 4.0716 10.7844 4.25 10.5766 4.25H9.32276C9.11503 4.25 8.9466 4.0716 8.9466 3.85156V2.52344C8.9466 2.3034 9.11503 2.125 9.32276 2.125H10.5766C10.7844 2.125 10.9528 2.3034 10.9528 2.52344V3.85156Z" fill="#2E2E2E"/>
</svg>
