<svg width="44" height="36" viewBox="0 0 44 36" fill="none" xmlns="http://www.w3.org/2000/svg">
<path d="M23.543 33.3021L23.4795 33.3419L19.3741 27.914L32.3107 19.8094L28.8839 27.2978C27.7294 29.6878 25.9397 31.8006 23.543 33.3021ZM21.3629 5.33485L8.42629 13.4395L4.32088 8.01151L4.38441 7.97171C6.78115 6.47019 9.5514 5.65382 12.4546 5.57586L21.3629 5.33485ZM7.04023 14.3078C8.55335 13.3599 10.432 13.2329 12.1049 13.8015L28.7377 3.38132C32.7399 0.873957 37.505 -0.219668 42.5766 1.51139C43.3097 1.76043 43.8143 2.42762 43.8082 3.13978C43.7744 8.06926 40.9508 11.7299 36.9485 14.2372L20.3157 24.6574C20.3021 26.2826 19.5011 27.8344 17.988 28.7823L17.526 29.0718L21.6314 34.4997L20.7073 35.0786C19.1763 36.0378 17.0158 35.5997 15.8825 34.1014L13.8298 31.3874L14.2918 31.0979C13.0161 31.8972 11.2162 31.5331 10.2711 30.2835L2.74453 20.3323C1.79943 19.0827 2.06714 17.4234 3.34174 16.6249L2.88203 16.9129L0.829322 14.1989C-0.30437 12.7 0.0177226 10.7074 1.54875 9.74821L2.47279 9.16931L6.5782 14.5973L7.04023 14.3078ZM31.9685 5.3572C31.7779 5.47659 31.7615 5.57859 31.9026 5.76517L35.6317 10.6956C35.7343 10.8313 35.8834 10.9045 36.0739 10.7851C37.2117 10.0724 37.45 8.59809 36.6075 7.48422L35.547 6.08201C34.7045 4.96815 33.1063 4.64442 31.9685 5.3572Z" fill="white"/>
</svg>
