<svg width="49" height="55" viewBox="0 0 49 55" fill="none" xmlns="http://www.w3.org/2000/svg">
<g filter="url(#filter0_d_1_121)">
<path d="M32.5965 6.83745C23.9194 3.18514 13.8896 7.27418 10.238 15.9496L4.35079 29.9365L4.43996 29.974C3.62389 33.1108 5.18697 36.4628 8.26235 37.7573C10.3149 38.6212 12.1953 38.5545 13.7979 37.671C14.1733 38.5975 14.7286 39.4405 15.4316 40.1512C16.1345 40.862 16.9714 41.4264 17.8937 41.8119C18.816 42.1975 19.8056 42.3965 20.8053 42.3975C21.8049 42.3984 22.7949 42.2014 23.718 41.8177C24.208 43.5922 25.4733 45.0015 27.4944 45.8522C30.8687 47.2725 34.769 45.683 36.1893 42.3086L41.7086 29.1959C45.3602 20.5205 41.2736 10.4898 32.5965 6.83745ZM32.6926 40.8368C32.084 42.2827 30.4121 42.9641 28.9662 42.3555C28.1812 42.0251 26.3436 41.2516 27.8154 37.7549L28.5514 36.0066L25.0546 34.5347L24.3187 36.2831C23.507 38.2116 21.2786 39.1197 19.3502 38.308C17.4217 37.4963 16.5136 35.2679 17.3253 33.3395L18.0612 31.5911L14.5644 30.1193L13.8285 31.8677C12.4708 35.0934 11.0035 34.7948 9.73416 34.2605C8.28826 33.6519 7.60688 31.98 8.21547 30.5341L13.7348 17.4214C16.5754 10.6727 24.3777 7.49431 31.1247 10.3342C37.8716 13.174 41.0525 20.9754 38.2119 27.7241L32.6926 40.8368Z" fill="white"/>
</g>
<g filter="url(#filter1_d_1_121)">
<path d="M19.9923 22.1134C21.9235 22.9262 24.148 22.0197 24.9609 20.0885C25.7737 18.1573 24.8671 15.9328 22.9359 15.1199C21.0047 14.3071 18.7803 15.2136 17.9674 17.1448C17.1545 19.076 18.0611 21.3005 19.9923 22.1134Z" fill="white"/>
</g>
<g filter="url(#filter2_d_1_121)">
<path d="M30.4825 26.5288C32.4137 27.3417 34.6382 26.4351 35.4511 24.5039C36.264 22.5727 35.3574 20.3482 33.4262 19.5354C31.495 18.7225 29.2705 19.6291 28.4576 21.5603C27.6448 23.4915 28.5514 25.716 30.4825 26.5288Z" fill="white"/>
</g>
<defs>
<filter id="filter0_d_1_121" x="0.225403" y="5.50037" width="46.8203" height="48.8719" filterUnits="userSpaceOnUse" color-interpolation-filters="sRGB">
<feFlood flood-opacity="0" result="BackgroundImageFix"/>
<feColorMatrix in="SourceAlpha" type="matrix" values="0 0 0 0 0 0 0 0 0 0 0 0 0 0 0 0 0 0 127 0" result="hardAlpha"/>
<feOffset dy="4"/>
<feGaussianBlur stdDeviation="2"/>
<feComposite in2="hardAlpha" operator="out"/>
<feColorMatrix type="matrix" values="0 0 0 0 0 0 0 0 0 0 0 0 0 0 0 0 0 0 0.25 0"/>
<feBlend mode="normal" in2="BackgroundImageFix" result="effect1_dropShadow_1_121"/>
<feBlend mode="normal" in="SourceGraphic" in2="effect1_dropShadow_1_121" result="shape"/>
</filter>
<filter id="filter1_d_1_121" x="13.6693" y="14.8218" width="15.5897" height="15.5897" filterUnits="userSpaceOnUse" color-interpolation-filters="sRGB">
<feFlood flood-opacity="0" result="BackgroundImageFix"/>
<feColorMatrix in="SourceAlpha" type="matrix" values="0 0 0 0 0 0 0 0 0 0 0 0 0 0 0 0 0 0 127 0" result="hardAlpha"/>
<feOffset dy="4"/>
<feGaussianBlur stdDeviation="2"/>
<feComposite in2="hardAlpha" operator="out"/>
<feColorMatrix type="matrix" values="0 0 0 0 0 0 0 0 0 0 0 0 0 0 0 0 0 0 0.25 0"/>
<feBlend mode="normal" in2="BackgroundImageFix" result="effect1_dropShadow_1_121"/>
<feBlend mode="normal" in="SourceGraphic" in2="effect1_dropShadow_1_121" result="shape"/>
</filter>
<filter id="filter2_d_1_121" x="24.1595" y="19.2373" width="15.5897" height="15.5897" filterUnits="userSpaceOnUse" color-interpolation-filters="sRGB">
<feFlood flood-opacity="0" result="BackgroundImageFix"/>
<feColorMatrix in="SourceAlpha" type="matrix" values="0 0 0 0 0 0 0 0 0 0 0 0 0 0 0 0 0 0 127 0" result="hardAlpha"/>
<feOffset dy="4"/>
<feGaussianBlur stdDeviation="2"/>
<feComposite in2="hardAlpha" operator="out"/>
<feColorMatrix type="matrix" values="0 0 0 0 0 0 0 0 0 0 0 0 0 0 0 0 0 0 0.25 0"/>
<feBlend mode="normal" in2="BackgroundImageFix" result="effect1_dropShadow_1_121"/>
<feBlend mode="normal" in="SourceGraphic" in2="effect1_dropShadow_1_121" result="shape"/>
</filter>
</defs>
</svg>
