<svg width="21" height="20" viewBox="0 0 21 20" fill="none" xmlns="http://www.w3.org/2000/svg">
<path d="M20.2068 9.83945L11.6827 0.818743L11.1114 0.213781C10.9812 0.0768506 10.8051 0 10.6216 0C10.4381 0 10.2621 0.0768506 10.1319 0.213781L1.03641 9.83945C0.903011 9.98014 0.797586 10.1477 0.726354 10.3322C0.655123 10.5168 0.619529 10.7146 0.621673 10.9139C0.630498 11.7361 1.27687 12.3924 2.05339 12.3924H2.99095V20H18.2523V12.3924H19.2097C19.5869 12.3924 19.9421 12.2359 20.209 11.9533C20.3405 11.8146 20.4446 11.6496 20.5154 11.468C20.5862 11.2864 20.6223 11.0917 20.6216 10.8952C20.6216 10.4981 20.4738 10.1221 20.2068 9.83945ZM11.857 18.3183H9.38624V13.5533H11.857V18.3183ZM16.6639 10.7107V18.3183H13.2689V12.9927C13.2689 12.4765 12.874 12.0584 12.3864 12.0584H8.8568C8.36926 12.0584 7.97438 12.4765 7.97438 12.9927V18.3183H4.5793V10.7107H2.46151L10.6238 2.07538L11.1334 2.61494L18.7839 10.7107H16.6639Z" fill="#990000"/>
</svg>
