<svg width="33" height="34" viewBox="0 0 33 34" fill="none" xmlns="http://www.w3.org/2000/svg">
<path fill-rule="evenodd" clip-rule="evenodd" d="M2.94261 22.5947L8.28863 22.5979L10.4505 0.934908L0.807434 0.929079L2.94261 22.5947Z" fill="white"/>
<path d="M5.60959 33.0755C7.87717 33.0769 9.71651 31.2441 9.71788 28.9818C9.71925 26.7196 7.88212 24.8845 5.61454 24.8832C3.34696 24.8818 1.50762 26.7146 1.50625 28.9768C1.50488 31.2391 3.34201 33.0741 5.60959 33.0755Z" fill="white"/>
<path fill-rule="evenodd" clip-rule="evenodd" d="M21.2984 0.975629C15.0639 1.36026 11.8041 4.8882 11.5157 11.2728L17.8052 11.2766C17.8853 9.06466 19.1206 7.41215 21.419 7.17032C23.6751 6.93221 25.8144 7.47031 26.4617 9.01306C27.1609 10.6796 25.5879 12.6148 24.8401 13.427C23.456 14.9332 21.209 16.0311 20.0433 17.6569C18.9007 19.2489 18.6964 21.3451 18.607 23.9106L24.1496 23.914C24.2283 22.2736 24.3386 20.7024 25.0854 19.6834C26.3004 18.0276 28.1138 17.2525 29.6339 15.9451C31.0859 14.6956 32.6137 13.1896 32.8744 10.8577C33.6559 3.8771 27.9599 0.564467 21.2984 0.975629Z" fill="white"/>
<path d="M21.4221 33.0845C23.3547 33.0857 24.9224 31.5437 24.9235 29.6403C24.9247 27.737 23.3589 26.193 21.4263 26.1919C19.4936 26.1907 17.9259 27.7327 17.9248 29.6361C17.9236 31.5394 19.4894 33.0834 21.4221 33.0845Z" fill="white"/>
</svg>
